grf
version=1
nRows=9
nColumns=37
inDegrees=no
endheader
time	ground_force_1_vx	ground_force_1_vy	ground_force_1_vz	ground_force_1_px	ground_force_1_py	ground_force_1_pz	ground_moment_1_mx	ground_moment_1_my	ground_moment_1_mz	ground_force_2_vx	ground_force_2_vy	ground_force_2_vz	ground_force_2_px	ground_force_2_py	ground_force_2_pz	ground_moment_2_mx	ground_moment_2_my	ground_moment_2_mz	ground_force_3_vx	ground_force_3_vy	ground_force_3_vz	ground_force_3_px	ground_force_3_py	ground_force_3_pz	ground_moment_3_mx	ground_moment_3_my	ground_moment_3_mz	ground_force_4_vx	ground_force_4_vy	ground_force_4_vz	ground_force_4_px	ground_force_4_py	ground_force_4_pz	ground_moment_4_mx	ground_moment_4_my	ground_moment_4_mz
      1.69000000	      0.00000000	     -0.00000000	      0.00000000	      0.00000000	      0.00000000	      0.00000000	      0.00000000	      0.00000000	      0.00000000	    -18.23079681	     98.73632812	   -587.25836182	   -268.32664033	  -1220.07974305	      0.00000000	      0.00000000	      0.00000000	   7907.73042923	     -0.15858577	    -81.23719023	   -554.92864990	   -302.55414975	   -601.40209334	      0.00000000	     -0.00000000	     -0.00000000	 -10228.83427094	      0.00000000	     -0.00000000	      0.00000000	      0.00000000	      0.00000000	      0.00000000	      0.00000000	      0.00000000	      0.00000000
      1.70000000	      0.00000000	     -0.00000000	      0.00000000	      0.00000000	      0.00000000	      0.00000000	      0.00000000	      0.00000000	      0.00000000	    -17.85012245	     98.32310486	   -590.83825684	   -267.30298976	  -1219.99920519	      0.00000000	      0.00000000	      0.00000000	   7854.67398667	     -0.27899920	    -81.36923215	   -555.00183105	   -300.85157045	   -600.79292867	      0.00000000	      0.00000000	     -0.00000000	 -10343.54962903	      0.00000000	     -0.00000000	      0.00000000	      0.00000000	      0.00000000	      0.00000000	      0.00000000	      0.00000000	      0.00000000
      1.71000000	      0.00000000	     -0.00000000	      0.00000000	      0.00000000	      0.00000000	      0.00000000	      0.00000000	      0.00000000	      0.00000000	    -16.22870636	     99.15377045	   -595.18896484	   -266.63911064	  -1219.86965225	      0.00000000	      0.00000000	      0.00000000	   7951.19796214	     -0.61436661	    -82.68148798	   -556.62274170	   -299.17998894	   -599.13036314	      0.00000000	      0.00000000	     -0.00000000	 -10551.61177676	      0.00000000	     -0.00000000	      0.00000000	      0.00000000	      0.00000000	      0.00000000	      0.00000000	      0.00000000	      0.00000000
      1.72000000	      0.00000000	     -0.00000000	      0.00000000	      0.00000000	      0.00000000	      0.00000000	      0.00000000	      0.00000000	      0.00000000	    -14.96684456	     99.06488037	   -596.24896240	   -265.56988243	  -1220.06869249	      0.00000000	      0.00000000	      0.00000000	   8099.78646336	     -1.46972066	    -83.79817950	   -559.18988037	   -297.60269814	   -598.44071738	      0.00000000	      0.00000000	     -0.00000000	 -10720.87376705	      0.00000000	     -0.00000000	      0.00000000	      0.00000000	      0.00000000	      0.00000000	      0.00000000	      0.00000000	      0.00000000
      1.73000000	      0.00000000	     -0.00000000	      0.00000000	      0.00000000	      0.00000000	      0.00000000	      0.00000000	      0.00000000	      0.00000000	    -14.23237896	     99.29127502	   -600.02325439	   -264.72142590	  -1220.31467439	      0.00000000	      0.00000000	      0.00000000	   8233.26825519	     -2.55330590	    -84.93840767	   -562.83239746	   -296.19518621	   -597.69813791	      0.00000000	      0.00000000	     -0.00000000	 -10839.20274189	      0.00000000	     -0.00000000	      0.00000000	      0.00000000	      0.00000000	      0.00000000	      0.00000000	      0.00000000	      0.00000000
      1.74000000	      0.00000000	     -0.00000000	      0.00000000	      0.00000000	      0.00000000	      0.00000000	      0.00000000	      0.00000000	      0.00000000	    -13.53922558	     98.33158875	   -603.66674805	   -264.02973851	  -1220.15502955	      0.00000000	      0.00000000	      0.00000000	   8412.20137540	     -2.80834401	    -85.89829993	   -568.18933105	   -295.59447362	   -597.67274526	      0.00000000	      0.00000000	     -0.00000000	 -11248.27780348	      0.00000000	     -0.00000000	      0.00000000	      0.00000000	      0.00000000	      0.00000000	      0.00000000	      0.00000000	      0.00000000
      1.75000000	      0.00000000	     -0.00000000	      0.00000000	      0.00000000	      0.00000000	      0.00000000	      0.00000000	      0.00000000	      0.00000000	    -12.81972599	     98.33739471	   -609.42333984	   -263.63916003	  -1220.52128637	      0.00000000	      0.00000000	      0.00000000	   8557.86075471	     -3.29127780	    -86.32918520	   -576.88171387	   -294.91869720	   -597.63446857	      0.00000000	      0.00000000	     -0.00000000	 -11420.33937613	      0.00000000	     -0.00000000	      0.00000000	      0.00000000	      0.00000000	      0.00000000	      0.00000000	      0.00000000	      0.00000000
      1.76000000	      0.00000000	     -0.00000000	      0.00000000	      0.00000000	      0.00000000	      0.00000000	      0.00000000	      0.00000000	      0.00000000	    -12.46324539	     97.98051453	   -612.39324951	   -262.60711813	  -1220.11192012	      0.00000000	      0.00000000	      0.00000000	   8675.76699090	     -3.86397007	    -87.61511197	   -583.31530762	   -294.31680098	   -597.25450173	      0.00000000	      0.00000000	     -0.00000000	 -11677.38162857	      0.00000000	     -0.00000000	      0.00000000	      0.00000000	      0.00000000	      0.00000000	      0.00000000	      0.00000000	      0.00000000
      1.77000000	      0.00000000	     -0.00000000	      0.00000000	      0.00000000	      0.00000000	      0.00000000	      0.00000000	      0.00000000	      0.00000000	    -11.95420837	     97.91210175	   -615.79718018	   -262.40567314	  -1220.27922542	      0.00000000	      0.00000000	      0.00000000	   8735.68319849	     -4.28748093	    -88.41000329	   -588.63189697	   -293.75777864	   -597.16454027	      0.00000000	      0.00000000	     -0.00000000	 -11763.17077107	      0.00000000	     -0.00000000	      0.00000000	      0.00000000	      0.00000000	      0.00000000	      0.00000000	      0.00000000	      0.00000000
